<svg width="40" height="33" viewBox="0 0 40 33" fill="none" xmlns="http://www.w3.org/2000/svg">
<path d="M8.16158 6.46358C7.71378 6.22243 7.17217 6.23449 6.73553 6.49529C6.29888 6.75611 6.03149 7.22726 6.03149 7.73587V26.0395C6.03149 26.8375 6.67846 27.4845 7.47651 27.4845C8.27457 27.4845 8.92153 26.8375 8.92153 26.0395V10.1551L19.3149 15.7515C19.7426 15.982 20.2574 15.982 20.6851 15.7515L31.0785 10.1551V26.0395C31.0785 26.8375 31.7254 27.4845 32.5235 27.4845C33.3215 27.4845 33.9685 26.8375 33.9685 26.0395V7.73587C33.9685 7.22726 33.7011 6.75611 33.2645 6.49529C32.8279 6.23449 32.2863 6.22243 31.8384 6.46358L20 12.8382L8.16158 6.46358Z" fill="#4B4737"/>
<path fill-rule="evenodd" clip-rule="evenodd" d="M30.2319 0.45651C23.4243 -0.15217 16.5759 -0.15217 9.76817 0.45651L6.8447 0.717904C3.7088 0.998295 1.17507 3.39398 0.719619 6.50928C-0.239873 13.0723 -0.239873 19.7398 0.719619 26.3027C1.17507 29.4179 3.7088 31.8136 6.8447 32.0941L9.76817 32.3554C16.5759 32.9642 23.4243 32.9642 30.2319 32.3554L33.1552 32.0941C36.2913 31.8136 38.8249 29.4179 39.2804 26.3027C40.2399 19.7398 40.2399 13.0723 39.2804 6.50928C38.8249 3.39398 36.2913 0.998295 33.1552 0.717904L30.2319 0.45651ZM10.0255 3.33506C16.662 2.7417 23.338 2.7417 29.9745 3.33506L32.898 3.59646C34.7016 3.75772 36.1588 5.13559 36.4208 6.92736C37.3398 13.2129 37.3398 19.5989 36.4208 25.8846C36.1588 27.6764 34.7016 29.0542 32.898 29.2154L29.9745 29.4769C23.338 30.0703 16.662 30.0703 10.0255 29.4769L7.10209 29.2154C5.29848 29.0542 3.8412 27.6764 3.57925 25.8846C2.6603 19.5989 2.6603 13.2129 3.57925 6.92736C3.8412 5.13559 5.29848 3.75772 7.10209 3.59646L10.0255 3.33506Z" fill="#4B4737"/>
</svg>
