<svg width="250" height="250" viewBox="0 0 250 250" fill="none" xmlns="http://www.w3.org/2000/svg">
<path d="M221.606 0H28.3941C12.7378 0 0 12.7378 0 28.3941V221.606C0 237.262 12.7378 250 28.3941 250H221.606C237.262 250 250 237.262 250 221.606V28.3941C250 12.7378 237.262 0 221.606 0ZM237.785 221.606C237.785 230.527 230.527 237.785 221.606 237.785H28.3941C19.4731 237.785 12.215 230.527 12.215 221.606V28.3941C12.215 19.4731 19.4731 12.215 28.3941 12.215H221.606C230.527 12.215 237.785 19.4731 237.785 28.3941V221.606Z" fill="#4B4737"/>
<path d="M202.677 41.2158H47.3233C43.9503 41.2158 41.2158 43.9495 41.2158 47.3233V202.676C41.2158 206.015 43.9398 208.783 47.3233 208.783H95.5937H202.677C205.993 208.783 208.784 206.081 208.784 202.676V47.3233C208.784 43.9503 206.05 41.2158 202.677 41.2158ZM92.0986 196.517C92.092 196.528 92.0839 196.543 92.0684 196.569H57.9015L81.645 155.445L98.728 185.034C93.2973 194.441 92.2557 196.244 92.0986 196.517ZM106.173 196.569L111.069 188.088C111.07 188.086 111.071 188.085 111.072 188.083L149.135 122.156L192.099 196.569H106.173ZM196.569 179.883L154.424 106.886C153.333 104.997 151.318 103.832 149.135 103.832C146.953 103.832 144.937 104.997 143.846 106.886L105.78 172.818L86.9341 140.176C85.8429 138.287 83.8274 137.122 81.645 137.122C79.4626 137.122 77.4471 138.287 76.3559 140.176L53.4316 179.883V53.4308H196.569V179.883Z" fill="#4B4737"/>
<path d="M92.0767 196.556C92.072 196.563 92.0731 196.563 92.0767 196.556V196.556Z" fill="#4B4737"/>
<path d="M92.0757 196.557C92.079 196.551 92.0856 196.539 92.0979 196.518C92.1257 196.47 92.0872 196.537 92.0757 196.557Z" fill="#4B4737"/>
<path d="M115.489 116.84C126.286 116.84 135.07 108.056 135.07 97.2581C135.07 86.4601 126.286 77.6759 115.489 77.6759C104.691 77.6759 95.9072 86.4601 95.9072 97.2581C95.9072 108.056 104.691 116.84 115.489 116.84ZM115.489 89.8917C119.55 89.8917 122.855 93.1971 122.855 97.259C122.855 101.321 119.55 104.626 115.489 104.626C111.427 104.626 108.122 101.321 108.122 97.259C108.121 93.1963 111.426 89.8917 115.489 89.8917Z" fill="#4B4737"/>
</svg>
