<svg width="40" height="40" viewBox="0 0 40 40" fill="none" xmlns="http://www.w3.org/2000/svg">
<path d="M11.7654 8.43768C11.3828 8.38539 10.9927 8.45723 10.6599 8.64125H10.6315C9.85878 9.065 9.16271 9.60059 8.56913 10.2281C8.07584 10.7617 7.80825 11.3016 7.73798 11.8213C7.69607 12.131 7.72445 12.4408 7.82311 12.7367L7.85825 12.7569C8.41371 14.2843 9.13945 15.7536 10.026 17.1368C11.168 19.0801 12.5735 20.8774 14.2075 22.4841L14.2561 22.5498L14.3332 22.6029L14.3818 22.6559L14.4386 22.7016C16.1621 24.2347 18.0876 25.5558 20.1689 26.6325C22.5474 27.8438 23.9909 28.4166 24.8571 28.6544V28.6669C25.1112 28.7392 25.3422 28.7719 25.5747 28.7719C26.313 28.7213 27.012 28.4409 27.56 27.9754C28.2277 27.42 28.7938 26.766 29.2359 26.0396V26.0269C29.6507 25.2961 29.5102 24.6044 28.9116 24.1366C27.7124 23.1561 26.416 22.2852 25.0395 21.5357C24.1177 21.0679 23.1813 21.3512 22.8016 21.8253L21.992 22.7798C21.5771 23.254 20.8229 23.1883 20.8229 23.1883L20.8013 23.201C15.1778 21.8569 13.6777 16.5299 13.6777 16.5299C13.6777 16.5299 13.6074 15.8055 14.1277 15.4362L15.1413 14.6725C15.6265 14.3033 15.9644 13.4283 15.4441 12.5647C14.6486 11.2752 13.7197 10.0619 12.6709 8.94219C12.4415 8.67821 12.1198 8.49862 11.7627 8.43515L11.7654 8.43768Z" fill="#4B4737"/>
<path d="M11.7654 8.43768C11.3828 8.38539 10.9927 8.45723 10.6599 8.64125H10.6315C9.85878 9.065 9.16271 9.60059 8.56913 10.2281C8.07584 10.7617 7.80825 11.3016 7.73798 11.8213C7.69607 12.131 7.72445 12.4408 7.82311 12.7367L7.85825 12.7569C8.41371 14.2843 9.13945 15.7536 10.026 17.1368C11.168 19.0801 12.5735 20.8774 14.2075 22.4841L14.2561 22.5498L14.3332 22.6029L14.3818 22.6559L14.4386 22.7016C16.1621 24.2347 18.0876 25.5558 20.1689 26.6325C22.5474 27.8438 23.9909 28.4166 24.8571 28.6544V28.6669C25.1112 28.7392 25.3422 28.7719 25.5747 28.7719C26.313 28.7213 27.012 28.4409 27.56 27.9754C28.2277 27.42 28.7938 26.766 29.2359 26.0396V26.0269C29.6507 25.2961 29.5102 24.6044 28.9116 24.1366C27.7124 23.1561 26.416 22.2852 25.0395 21.5357C24.1177 21.0679 23.1813 21.3512 22.8016 21.8253L21.992 22.7798C21.5771 23.254 20.8229 23.1883 20.8229 23.1883L20.8013 23.201C15.1778 21.8569 13.6777 16.5299 13.6777 16.5299C13.6777 16.5299 13.6074 15.8055 14.1277 15.4362L15.1413 14.6725C15.6265 14.3033 15.9644 13.4283 15.4441 12.5647C14.6486 11.2752 13.7197 10.0619 12.6709 8.94219C12.4415 8.67821 12.1198 8.49862 11.7627 8.43515L11.7654 8.43768Z" stroke="black"/>
<path d="M21.4175 6.31574C20.8284 6.31574 20.3508 6.73467 20.3508 7.25142C20.3508 7.76818 20.8284 8.1871 21.4175 8.1871C24.1152 8.1871 26.3568 8.96057 28.1277 10.4416C29.0393 11.2527 29.7489 12.2127 30.2148 13.2632C30.6825 14.3178 30.8952 15.4422 30.8406 16.5686C30.8156 17.0847 31.2724 17.5211 31.861 17.543C32.4496 17.5651 32.9471 17.1642 32.972 16.6479C33.0392 15.2624 32.7773 13.8799 32.203 12.5848C31.6286 11.2898 30.7546 10.1097 29.6343 9.1162L29.613 9.09821C27.4156 7.25487 24.6302 6.31574 21.4175 6.31574Z" fill="#4B4737"/>
<path d="M21.4175 6.31574C20.8284 6.31574 20.3508 6.73467 20.3508 7.25142C20.3508 7.76818 20.8284 8.1871 21.4175 8.1871C24.1152 8.1871 26.3568 8.96057 28.1277 10.4416C29.0393 11.2527 29.7489 12.2127 30.2148 13.2632C30.6825 14.3178 30.8952 15.4422 30.8406 16.5686C30.8156 17.0847 31.2724 17.5211 31.861 17.543C32.4496 17.5651 32.9471 17.1642 32.972 16.6479C33.0392 15.2624 32.7773 13.8799 32.203 12.5848C31.6286 11.2898 30.7546 10.1097 29.6343 9.1162L29.613 9.09821C27.4156 7.25487 24.6302 6.31574 21.4175 6.31574Z" stroke="black"/>
<path d="M21.3382 9.12278C20.7929 9.12278 20.3508 9.55893 20.3508 10.0969C20.3508 10.635 20.7929 11.0711 21.3382 11.0711H21.3704C23.1724 11.1964 24.4835 11.7889 25.4028 12.7616C26.3438 13.7634 26.8311 15.0076 26.795 16.5472C26.7824 17.085 27.2143 17.5311 27.7593 17.5436C28.3046 17.5561 28.7568 17.1302 28.7694 16.5922C28.8168 14.5709 28.1578 12.8278 26.8501 11.4361L26.8483 11.4342C25.5122 10.0196 23.6789 9.27122 21.4705 9.12496L21.4375 9.12278H21.3382Z" fill="#4B4737"/>
<path d="M21.3382 9.12278C20.7929 9.12278 20.3508 9.55893 20.3508 10.0969C20.3508 10.635 20.7929 11.0711 21.3382 11.0711H21.3704C23.1724 11.1964 24.4835 11.7889 25.4028 12.7616C26.3438 13.7634 26.8311 15.0076 26.795 16.5472C26.7824 17.085 27.2143 17.5311 27.7593 17.5436C28.3046 17.5561 28.7568 17.1302 28.7694 16.5922C28.8168 14.5709 28.1578 12.8278 26.8501 11.4361L26.8483 11.4342C25.5122 10.0196 23.6789 9.27122 21.4705 9.12496L21.4375 9.12278H21.3382Z" stroke="black"/>
<path d="M21.3286 11.9313C20.8162 11.9007 20.379 12.3477 20.3521 12.9299C20.3251 13.512 20.7186 14.0088 21.2309 14.0394C22.0088 14.0859 22.5045 14.351 22.8163 14.7087C23.1295 15.0679 23.3636 15.6432 23.4063 16.545C23.434 17.1273 23.8716 17.5737 24.384 17.5423C24.8962 17.511 25.2892 17.0139 25.2617 16.4317C25.2017 15.165 24.8528 14.0452 24.1365 13.2233C23.4188 12.3998 22.4387 11.9977 21.3286 11.9313Z" fill="#4B4737"/>
<path d="M21.3286 11.9313C20.8162 11.9007 20.379 12.3477 20.3521 12.9299C20.3251 13.512 20.7186 14.0088 21.2309 14.0394C22.0088 14.0859 22.5045 14.351 22.8163 14.7087C23.1295 15.0679 23.3636 15.6432 23.4063 16.545C23.434 17.1273 23.8716 17.5737 24.384 17.5423C24.8962 17.511 25.2892 17.0139 25.2617 16.4317C25.2017 15.165 24.8528 14.0452 24.1365 13.2233C23.4188 12.3998 22.4387 11.9977 21.3286 11.9313Z" stroke="black"/>
<path d="M9.98411 1.01742C16.5799 -0.339139 23.4199 -0.339139 30.0158 1.01742L30.7187 1.16194C34.6504 1.97055 37.7533 4.74511 38.7444 8.33795C40.4186 14.4081 40.4186 20.767 38.7444 26.837C37.7533 30.4299 34.6502 33.2044 30.7187 34.0131L30.0158 34.1576C25.8727 35.0097 21.6332 35.3265 17.4184 35.1081L11.9188 39.6355C11.4965 39.9832 10.9021 40.0919 10.3674 39.9193C9.83272 39.7467 9.44249 39.3201 9.34893 38.8057L8.43936 33.8065C4.91065 32.7976 2.17476 30.1692 1.25568 26.837C-0.41856 20.767 -0.41856 14.4081 1.25568 8.33795C2.24662 4.74511 5.34973 1.97055 9.28137 1.16194L9.98411 1.01742ZM29.3376 3.80924C23.1884 2.54457 16.8116 2.54457 10.6624 3.80924L9.95964 3.95378C7.17207 4.52707 4.97194 6.49427 4.26934 9.04161C2.72248 14.65 2.72248 20.5249 4.26934 26.1333C4.97194 28.6807 7.17205 30.6479 9.95964 31.2212L10.1453 31.2593C10.7627 31.3863 11.2349 31.845 11.3394 32.4191L11.9494 35.7718L15.8304 32.5768C16.1438 32.3187 16.5573 32.1885 16.9768 32.216C21.109 32.4851 25.273 32.2016 29.3376 31.3657L30.0403 31.2212C32.828 30.6479 35.028 28.6807 35.7307 26.1333C37.2774 20.5249 37.2774 14.65 35.7307 9.04161C35.028 6.49427 32.828 4.52709 30.0403 3.95378L29.3376 3.80924Z" fill="#4B4737"/>
<path d="M9.98411 1.01742C16.5799 -0.339139 23.4199 -0.339139 30.0158 1.01742L30.7187 1.16194C34.6504 1.97055 37.7533 4.74511 38.7444 8.33795C40.4186 14.4081 40.4186 20.767 38.7444 26.837C37.7533 30.4299 34.6502 33.2044 30.7187 34.0131L30.0158 34.1576C25.8727 35.0097 21.6332 35.3265 17.4184 35.1081L11.9188 39.6355C11.4965 39.9832 10.9021 40.0919 10.3674 39.9193C9.83272 39.7467 9.44249 39.3201 9.34893 38.8057L8.43936 33.8065C4.91065 32.7976 2.17476 30.1692 1.25568 26.837C-0.41856 20.767 -0.41856 14.4081 1.25568 8.33795C2.24662 4.74511 5.34973 1.97055 9.28137 1.16194L9.98411 1.01742ZM29.3376 3.80924C23.1884 2.54457 16.8116 2.54457 10.6624 3.80924L9.95964 3.95378C7.17207 4.52707 4.97194 6.49427 4.26934 9.04161C2.72248 14.65 2.72248 20.5249 4.26934 26.1333C4.97194 28.6807 7.17205 30.6479 9.95964 31.2212L10.1453 31.2593C10.7627 31.3863 11.2349 31.845 11.3394 32.4191L11.9494 35.7718L15.8304 32.5768C16.1438 32.3187 16.5573 32.1885 16.9768 32.216C21.109 32.4851 25.273 32.2016 29.3376 31.3657L30.0403 31.2212C32.828 30.6479 35.028 28.6807 35.7307 26.1333C37.2774 20.5249 37.2774 14.65 35.7307 9.04161C35.028 6.49427 32.828 4.52709 30.0403 3.95378L29.3376 3.80924Z" stroke="black"/>
</svg>
